<svg xmlns="http://www.w3.org/2000/svg" width="343.999" height="51.422" viewBox="0 0 343.999 51.422">
  <g id="Group_3682" data-name="Group 3682" transform="translate(-216.936 -458)">
    <g id="Group_2879" data-name="Group 2879" transform="translate(216.936 458.569)">
      <path id="Path_23" data-name="Path 23" d="M220.972,488.032v-13.9h-4.036v-4.1h4.255l.1-8.867H223.9v8.867h11.317v4.1H223.9v13.359c.109,3.917,1.8,5.386,10.554,5.114v4.515c-.871.055-1.685.055-2.449.055-8.269,0-11.032-2.774-11.032-9.139" transform="translate(-216.936 -458.752)" fill="#4b4947"/>
      <path id="Path_24" data-name="Path 24" d="M242,458.792h2.817V476.96h.163a13.51,13.51,0,0,1,12.5-7.833c6.038,0,9.411,4.569,9.411,11.369V496.87h-2.764V482.129c0-5.277-1.686-7.834-8.649-7.834-9.085,0-10.553,5.548-10.553,9.248V496.87H242Z" transform="translate(-218.387 -458.615)" fill="#4b4947"/>
      <path id="Path_25" data-name="Path 25" d="M294.157,481.573c0-2.23-1.578-6.527-9.846-6.527-8.595,0-10.608,3.59-10.608,6.527Zm-22.684,2.286c0-7.835,5.277-13.981,13.055-13.981,6.256,0,11.7,4.081,11.7,13.545v3.047H273.594c0,3.372,2.883,6.255,10.934,6.528,6.2-.163,9.356-1.36,9.356-4.515h2.231c0,4.9-4.678,9.684-11.587,9.684-8.811,0-13.055-6.419-13.055-14.307" transform="translate(-220.094 -459.257)" fill="#4b4947"/>
      <path id="Path_26" data-name="Path 26" d="M373.276,485.67l-6.6-.055c-8.751,0-12.439,1.211-12.439,3.962,0,2.312,2.477,3.523,7.6,3.523,4.843,0,10.953-2.643,11.448-7.43m-21.3,4.017c0-6.493,5.449-9.025,13.484-9.025h7.925c-.22-5.5-3.247-6-9.356-6-6.274,0-8.7,2.2-8.7,3.908h-2.256c0-5.338,6.055-9.135,11.338-9.135,6.934,0,11.007,3.8,11.007,11.557v16.622h-2.366l.054-4.789c-1.651,3.138-6,5.5-10.9,5.5-5.283,0-10.237-3.082-10.237-8.642" transform="translate(-224.755 -459.231)" fill="#4b4947"/>
      <path id="Path_27" data-name="Path 27" d="M405.244,484.2c0-5.833-2.753-9.3-10.292-9.3-7.375,0-10.183,3.468-10.183,9.3,0,5.669,2.808,9.08,10.183,9.08,7.539,0,10.292-3.411,10.292-9.08m2.256,0c0,7.98-3.577,14.089-11.337,14.089a12.814,12.814,0,0,1-11.5-7.43v18H381.7V470.329h2.96v6.989a12.9,12.9,0,0,1,11.5-7.651c7.76,0,11.337,6.33,11.337,14.53" transform="translate(-226.476 -459.245)" fill="#4b4947"/>
      <path id="Path_28" data-name="Path 28" d="M436.576,484.2c0-5.833-2.752-9.3-10.292-9.3-7.375,0-10.182,3.468-10.182,9.3,0,5.669,2.808,9.08,10.182,9.08,7.54,0,10.292-3.411,10.292-9.08m2.257,0c0,7.98-3.578,14.089-11.338,14.089a12.814,12.814,0,0,1-11.5-7.43v18h-2.961V470.329h2.961v6.989a12.9,12.9,0,0,1,11.5-7.651c7.76,0,11.338,6.33,11.338,14.53" transform="translate(-228.29 -459.245)" fill="#4b4947"/>
      <path id="Path_29" data-name="Path 29" d="M464.2,470.226v15.845c-.495,4.788-6.6,7.429-11.447,7.429-4.009,0-5.9-3.032-6.794-5.9-.656-2.233-.78-10.437-.8-14.725v-2.654h-2.79v19.862c0,5.558,5.487,8.642,10.77,8.642,4.845,0,9.149-2.318,10.839-5.406v8.053c0,.025-.022,4.1-1.769,4.435-2.383.464-4.773-2.456-8.615-3.993a7.041,7.041,0,0,0-2.4-.439v0s-5.418-.507-6.823,4.379h0a7.374,7.374,0,0,0-.309,3.16v0h2.189c-.093-.789-.19-3.939,4.5-2.473v.008a17.93,17.93,0,0,1,3.5,1.521c.577.346,3.693,2.155,5.809,2.155a5.809,5.809,0,0,0,5.211-3.468l.007-.013.007-.013h0a14.387,14.387,0,0,0,1.072-5.258V470.226Z" transform="translate(-229.989 -459.277)" fill="#4b4947"/>
      <path id="Path_30" data-name="Path 30" d="M321.221,458.6h3.1v18.348h.165a12.791,12.791,0,0,1,12.086-7.911c6.1,0,10.037,4.614,10.037,11.481v16.536h-2.786V482.171c0-5.328-1.7-7.911-8.735-7.911-9.174,0-10.657,5.6-10.657,9.34v13.459h-3.208Z" transform="translate(-222.974 -458.604)" fill="#4b4947"/>
    </g>
    <path id="Path_31" data-name="Path 31" d="M517.271,458h2.961v23.5l13.924-12.272h7.319l-10.126,8.916,11.172,18.382h-3.026l-10.017-16.786-9.246,8.09v8.7h-2.961Z" transform="translate(-17.389 0)" fill="#4b4947"/>
    <rect id="Rectangle_4194" data-name="Rectangle 4194" width="3.665" height="27.297" transform="translate(527.915 469.227)" fill="#4b4947"/>
    <g id="Group_2880" data-name="Group 2880" transform="translate(472.619 468.457)">
      <path id="Path_32" data-name="Path 32" d="M555.17,469.871h2.851v7.154h.165A13.934,13.934,0,0,1,571,469.1c6.109,0,9.521,4.623,9.521,11.5v16.567h-2.96V482.253c0-5.338-1.706-7.924-8.752-7.924-9.189,0-10.677,5.612-10.677,9.355v13.484h-2.96Z" transform="translate(-492.203 -469.1)" fill="#4b4947"/>
      <path id="Path_33" data-name="Path 33" d="M488.333,486.684h2.229c0,3.587,2.555,5.87,10.055,5.87,7.228,0,9.075-1.522,9.075-3.588,0-5.706-20.924-1.194-20.924-11.9,0-3.423,2.718-7.825,11.305-7.825,9.891,0,10.815,5.978,10.815,8.858H508.66c0-1.412-.434-3.695-8.967-3.695-7.229,0-8.7,1.522-8.7,2.717,0,4.4,20.923,1.848,20.923,11.523,0,3.369-2.335,9.075-12.065,9.075-10.38,0-11.523-7.445-11.523-11.033" transform="translate(-488.333 -469.108)" fill="#4b4947"/>
    </g>
  </g>
</svg>
