<svg xmlns="http://www.w3.org/2000/svg" width="129.496" height="165.766" viewBox="0 0 129.496 165.766">
  <g id="Group_2887" data-name="Group 2887" transform="translate(-38.797 -601)">
    <g id="Group_2882" data-name="Group 2882" transform="translate(38.797 601)">
      <path id="Path_34" data-name="Path 34" d="M162.715,697.921a101.434,101.434,0,0,1-2.766,13.684,87.368,87.368,0,0,1-11.361,25.271,71.685,71.685,0,0,1-8.687,10.708,58.311,58.311,0,0,1-10.657,8.581,51.22,51.22,0,0,1-12.348,5.619,45.843,45.843,0,0,1-26.7,0,51.233,51.233,0,0,1-12.35-5.619,58.338,58.338,0,0,1-10.656-8.581A71.62,71.62,0,0,1,58.5,736.875,87.345,87.345,0,0,1,47.14,711.6a101.439,101.439,0,0,1-2.766-13.684,106.171,106.171,0,0,1-.045-27.912A101.791,101.791,0,0,1,47.047,656.3,87.572,87.572,0,0,1,58.33,630.938a71.936,71.936,0,0,1,8.682-10.771,58.389,58.389,0,0,1,10.681-8.653,51.436,51.436,0,0,1,12.413-5.671,45.971,45.971,0,0,1,26.875,0,51.419,51.419,0,0,1,12.413,5.671,58.389,58.389,0,0,1,10.681,8.653,71.937,71.937,0,0,1,8.682,10.771A87.546,87.546,0,0,1,160.042,656.3a101.791,101.791,0,0,1,2.718,13.705,106.17,106.17,0,0,1-.045,27.912m4.522-28.815a102.022,102.022,0,0,0-3.083-14.306,92.382,92.382,0,0,0-5.213-13.639,86.417,86.417,0,0,0-7.306-12.582,75.1,75.1,0,0,0-9.4-11.024c-.869-.836-1.783-1.624-2.672-2.438-.923-.774-1.864-1.527-2.8-2.285-.977-.7-1.934-1.432-2.925-2.111l-1.511-.982c-.5-.327-1-.671-1.524-.959a51.657,51.657,0,0,0-54.53,0c-.527.289-1.02.633-1.524.959l-1.511.982c-.991.68-1.949,1.408-2.925,2.111-.934.758-1.875,1.511-2.8,2.285-.889.814-1.8,1.6-2.672,2.438a75.163,75.163,0,0,0-9.4,11.024,86.5,86.5,0,0,0-7.305,12.582A92.381,92.381,0,0,0,42.935,654.8a102.159,102.159,0,0,0-3.083,14.306,103.9,103.9,0,0,0-.045,29.225,102.323,102.323,0,0,0,3.034,14.327,92.723,92.723,0,0,0,5.166,13.679,86.757,86.757,0,0,0,7.272,12.638,75.5,75.5,0,0,0,9.393,11.089c.87.842,1.785,1.636,2.675,2.455.925.78,1.867,1.539,2.8,2.3.979.71,1.939,1.444,2.932,2.131l1.516.992c.506.329,1,.676,1.53.966a51.783,51.783,0,0,0,54.835,0c.529-.29,1.024-.638,1.53-.966l1.516-.992c.993-.687,1.953-1.421,2.932-2.131.936-.764,1.879-1.523,2.8-2.3.891-.819,1.805-1.613,2.675-2.455a75.44,75.44,0,0,0,9.393-11.089,86.583,86.583,0,0,0,7.273-12.638,92.72,92.72,0,0,0,5.166-13.679,102.325,102.325,0,0,0,3.034-14.327,103.8,103.8,0,0,0-.045-29.225" transform="translate(-38.797 -601)" fill="#4c4a48"/>
      <path id="Path_35" data-name="Path 35" d="M54.465,688.043a1.752,1.752,0,0,0,1.051.307,1.414,1.414,0,0,0,1.247-.662,3.246,3.246,0,0,0,.372-.779,8.425,8.425,0,0,0,.27-1.042,7.084,7.084,0,0,1,.235-.834,1.158,1.158,0,0,1,.3-.483.666.666,0,0,1,.449-.16.843.843,0,0,1,.736.368,1.76,1.76,0,0,1,.276,1.021,3.027,3.027,0,0,1-.162,1.026,3.183,3.183,0,0,1-.529.946l.888.4a2.475,2.475,0,0,0,.42-.652,3.844,3.844,0,0,0,.258-.825,4.387,4.387,0,0,0,.084-.917,3.312,3.312,0,0,0-.275-1.354,2.1,2.1,0,0,0-.729-.889,1.8,1.8,0,0,0-1.056-.307,1.671,1.671,0,0,0-.745.163,1.5,1.5,0,0,0-.535.463,2.915,2.915,0,0,0-.381.756,6.765,6.765,0,0,0-.265,1.045,7.249,7.249,0,0,1-.225.839,1.336,1.336,0,0,1-.29.51.6.6,0,0,1-.435.175.77.77,0,0,1-.689-.374,1.987,1.987,0,0,1-.257-1.072,3.762,3.762,0,0,1,.156-1.158,3.567,3.567,0,0,1,.533-1.041l-.888-.393a3.022,3.022,0,0,0-.423.724,4.059,4.059,0,0,0-.258.881,5.384,5.384,0,0,0-.078.988,3.82,3.82,0,0,0,.256,1.42,2.01,2.01,0,0,0,.7.909" transform="translate(-39.121 -602.81)" fill="#4c4a48"/>
    </g>
    <path id="Path_36" data-name="Path 36" d="M61.234,698.8l-.168-1.456-3.319-2.624,2.977-.344-.139-1.2-6.645.768.139,1.2,3.106-.359-2.749,3.448.17,1.475,3.058-3.769Z" transform="translate(-0.334 -2.031)" fill="#4c4a48"/>
    <rect id="Rectangle_4195" data-name="Rectangle 4195" width="6.69" height="1.212" transform="translate(55.154 702.236) rotate(-12.098)" fill="#4c4a48"/>
    <path id="Path_37" data-name="Path 37" d="M64.941,713.506,60.5,714.969l3.318-4.881-.282-.857-6.354,2.091.355,1.08,4.437-1.461-3.315,4.87.285.866,6.354-2.092Z" transform="translate(-0.405 -2.385)" fill="#4c4a48"/>
    <path id="Path_38" data-name="Path 38" d="M72.511,728.789l-2.376,1.5L68.3,727.378l2.377-1.5-.637-1.01-5.659,3.568.636,1.01,2.464-1.553,1.834,2.909-2.464,1.553.632,1,5.659-3.568Z" transform="translate(-0.564 -2.73)" fill="#4c4a48"/>
    <path id="Path_39" data-name="Path 39" d="M76.282,735.228l2.212,2.433.7-.638-3.008-3.309-4.949,4.5,3.008,3.309.7-.639-2.212-2.433,1.46-1.327,2.086,2.294.709-.645-2.085-2.294Z" transform="translate(-0.715 -2.925)" fill="#4c4a48"/>
    <path id="Path_40" data-name="Path 40" d="M83.221,745.779l-1.99-1.44,2.675-1.593Zm-5.327-.758.99.716,1.468-.874L83,746.775l-.376,1.666.975.7,1.469-7.193-.8-.578Z" transform="translate(-0.862 -3.094)" fill="#4c4a48"/>
    <path id="Path_41" data-name="Path 41" d="M92.233,745.92l-1.126-.449-2.475,6.215,4.024,1.6.368-.925-2.9-1.154Z" transform="translate(-1.098 -3.184)" fill="#4c4a48"/>
    <path id="Path_42" data-name="Path 42" d="M97.29,748.738l2.156.326-.851,5.63,1.208.182.851-5.63,2.155.325.149-.984-5.518-.834Z" transform="translate(-1.289 -3.234)" fill="#4c4a48"/>
    <path id="Path_43" data-name="Path 43" d="M111.415,747.916l.418,2.778-3.4.512-.418-2.778-1.18.178,1,6.615,1.18-.178-.433-2.88,3.4-.512.434,2.88,1.17-.176-1-6.616Z" transform="translate(-1.499 -3.234)" fill="#4c4a48"/>
    <path id="Path_44" data-name="Path 44" d="M126.026,746.215l-.622-3.05,2.638,1.646Zm-1.8-3.843,1.341,7.218,1-.7-.341-1.674,2.679-1.865,1.448.9.987-.687-6.306-3.761Z" transform="translate(-1.883 -3.103)" fill="#4c4a48"/>
    <path id="Path_45" data-name="Path 45" d="M134.035,734.884l-.719-.689-3.862,4.029.719.689,1.508-1.574,4.11,3.94.845-.882-4.11-3.94Z" transform="translate(-1.998 -2.935)" fill="#4c4a48"/>
    <path id="Path_46" data-name="Path 46" d="M139.592,727.216l-.825-.558-3.126,4.623.825.558,1.221-1.806,4.716,3.189.684-1.012-4.717-3.189Z" transform="translate(-2.134 -2.769)" fill="#4c4a48"/>
    <rect id="Rectangle_4196" data-name="Rectangle 4196" width="1.212" height="6.69" transform="translate(138.688 720.121) rotate(-62.997)" fill="#4c4a48"/>
    <path id="Path_47" data-name="Path 47" d="M146.3,712.692l-.932-.351-1.968,5.223.932.351.769-2.04,5.327,2.007.431-1.143-5.328-2.007Z" transform="translate(-2.305 -2.454)" fill="#4c4a48"/>
    <g id="Group_2883" data-name="Group 2883" transform="translate(144.298 690.057)">
      <path id="Path_48" data-name="Path 48" d="M151.839,703.542l-3.877-.917-.277,1.17,3.94.933a1.885,1.885,0,0,1,1.177.7,1.5,1.5,0,0,1,.166,1.251,1.551,1.551,0,0,1-.712,1.072,1.876,1.876,0,0,1-1.369.1l-3.941-.933-.272,1.152,3.877.918a2.805,2.805,0,0,0,2.184-.212,3.417,3.417,0,0,0,.954-4.052,2.783,2.783,0,0,0-1.85-1.176" transform="translate(-146.675 -692.296)" fill="#4c4a48"/>
      <path id="Path_49" data-name="Path 49" d="M154.745,695.857l-.125,1.167-4.689-.5.124-1.168a2.06,2.06,0,0,1,2.581-2.05,2.45,2.45,0,0,1,1.7.763,2.323,2.323,0,0,1,.4,1.788m-.22-3.166a3.745,3.745,0,0,0-1.759-.6,3.687,3.687,0,0,0-1.833.215,2.734,2.734,0,0,0-1.261,1.051,4.06,4.06,0,0,0-.59,1.818l-.262,2.447,6.652.71.261-2.448a4.059,4.059,0,0,0-.195-1.9,2.714,2.714,0,0,0-1.014-1.3" transform="translate(-146.722 -692.064)" fill="#4c4a48"/>
    </g>
    <path id="Path_50" data-name="Path 50" d="M155.343,682.275l.038,3.288-1.973.023-.036-3.1-.959.011.036,3.1-1.86.021-.038-3.288-.948.011.051,4.472,6.689-.077-.051-4.472Z" transform="translate(-2.442 -1.791)" fill="#4c4a48"/>
    <path id="Path_51" data-name="Path 51" d="M57.956,659.033l5.428,1.718.369-1.165-5.429-1.717.657-2.079-.949-.3-1.684,5.321.949.3Z" transform="translate(-0.387 -1.201)" fill="#4c4a48"/>
    <path id="Path_52" data-name="Path 52" d="M66.563,652.193l-2.629-1.254,1.48-3.1,2.629,1.254.509-1.068-6.038-2.88-.51,1.069,2.536,1.21-1.48,3.1-2.535-1.209-.514,1.077,6.038,2.88Z" transform="translate(-0.468 -0.973)" fill="#4c4a48"/>
    <path id="Path_53" data-name="Path 53" d="M73.684,639.933,72.9,639.4l-1.861,2.712-1.627-1.117,1.754-2.556-.79-.542-1.755,2.556L67.089,639.4l1.861-2.711-.782-.537-2.531,3.688,5.516,3.785Z" transform="translate(-0.591 -0.775)" fill="#4c4a48"/>
    <path id="Path_54" data-name="Path 54" d="M81.953,631.192l-1.759-2.321,2.74-2.077,1.76,2.321.944-.715L81.6,623.068l-.943.715,1.7,2.239L79.609,628.1l-1.7-2.239-.951.721L81,631.913Z" transform="translate(-0.841 -0.486)" fill="#4c4a48"/>
    <path id="Path_55" data-name="Path 55" d="M90.376,623.149l.1-3.112,2.186,2.212Zm-.033,1.023,3.038-1.2,1.2,1.215,1.119-.441-5.264-5.117-.918.361-.366,7.333,1.136-.447Z" transform="translate(-1.11 -0.389)" fill="#4c4a48"/>
    <g id="Group_2884" data-name="Group 2884" transform="translate(97.728 615.78)">
      <path id="Path_56" data-name="Path 56" d="M101.881,617.081a1.482,1.482,0,0,1,.975.186,1.042,1.042,0,0,1,.107,1.485,1.459,1.459,0,0,1-.931.333l-1.546.116-.15-2.006Zm-1.117,5.84-.209-2.792,1.687-.126a2.475,2.475,0,0,0,1.633-.65,1.981,1.981,0,0,0-.2-2.835,2.48,2.48,0,0,0-1.72-.393l-2.9.217.5,6.671Z" transform="translate(-99.056 -616.113)" fill="#4c4a48"/>
      <path id="Path_57" data-name="Path 57" d="M111.428,617.648l1.513.339a1.475,1.475,0,0,1,.879.462,1.045,1.045,0,0,1-.331,1.452,1.464,1.464,0,0,1-.988.048l-1.513-.339Zm-.643,2.869,1.65.371a2.481,2.481,0,0,0,1.752-.147,1.98,1.98,0,0,0,.631-2.772,2.483,2.483,0,0,0-1.531-.878l-2.833-.635-1.463,6.528,1.182.265Z" transform="translate(-99.275 -616.12)" fill="#4c4a48"/>
    </g>
    <path id="Path_58" data-name="Path 58" d="M120.6,627.046l1.244-2.327,4.3-2.293-1.218-.651-3.134,1.747-.288-3.577-1.218-.651.49,4.842-1.25,2.338Z" transform="translate(-1.779 -0.403)" fill="#4c4a48"/>
    <g id="Group_2885" data-name="Group 2885" transform="translate(128.878 630.397)">
      <path id="Path_59" data-name="Path 59" d="M131.442,635.756a5.342,5.342,0,0,0,.587.8,3.8,3.8,0,0,0,1.123.908,2.013,2.013,0,0,0,1.121.232,1.751,1.751,0,0,0,1-.455,1.417,1.417,0,0,0,.51-1.316,3.285,3.285,0,0,0-.229-.833,8.4,8.4,0,0,0-.476-.964,7.1,7.1,0,0,1-.368-.784,1.161,1.161,0,0,1-.093-.558.667.667,0,0,1,.236-.415.843.843,0,0,1,.8-.2,1.759,1.759,0,0,1,.875.592,3.043,3.043,0,0,1,.549.883,3.216,3.216,0,0,1,.218,1.061l.935-.276a2.472,2.472,0,0,0-.11-.769,3.858,3.858,0,0,0-.343-.793,4.543,4.543,0,0,0-.537-.748,3.309,3.309,0,0,0-1.093-.846,2.11,2.11,0,0,0-1.133-.2,1.8,1.8,0,0,0-1,.458,1.675,1.675,0,0,0-.457.611,1.491,1.491,0,0,0-.1.7,2.921,2.921,0,0,0,.206.822,6.662,6.662,0,0,0,.483.964,7.121,7.121,0,0,1,.377.782,1.313,1.313,0,0,1,.114.576.6.6,0,0,1-.214.416.772.772,0,0,1-.767.17,2,2,0,0,1-.9-.644,3.757,3.757,0,0,1-.639-.978,3.584,3.584,0,0,1-.277-1.135l-.929.283a3.057,3.057,0,0,0,.153.824,4.108,4.108,0,0,0,.381.835" transform="translate(-130.908 -631.06)" fill="#4c4a48"/>
    </g>
    <path id="Path_60" data-name="Path 60" d="M137.261,643.337l2.66-1.644-1.025,4.29.78,1.263,1.168-4.711,4.448,1.073-.771-1.246-4.12-.965,2.549-1.576-.637-1.031-5.69,3.518Z" transform="translate(-2.156 -0.833)" fill="#4c4a48"/>
    <rect id="Rectangle_4197" data-name="Rectangle 4197" width="6.69" height="1.212" transform="translate(139.239 650) rotate(-24.68)" fill="#4c4a48"/>
    <path id="Path_61" data-name="Path 61" d="M144.343,657.97l4.442-1.444-3.332,4.858.282.867,6.362-2.069-.352-1.081-4.449,1.447,3.336-4.869-.279-.858-6.362,2.069Z" transform="translate(-2.318 -1.186)" fill="#4c4a48"/>
    <g id="Group_2886" data-name="Group 2886" transform="translate(56.285 633.358)">
      <path id="Path_62" data-name="Path 62" d="M56.679,671.59a1.512,1.512,0,1,0,1.512-1.512,1.512,1.512,0,0,0-1.512,1.512" transform="translate(-56.679 -634.88)" fill="#4c4a48"/>
      <path id="Path_63" data-name="Path 63" d="M150.166,671.59a1.512,1.512,0,1,0,1.512-1.512,1.512,1.512,0,0,0-1.512,1.512" transform="translate(-58.739 -634.88)" fill="#4c4a48"/>
      <path id="Path_64" data-name="Path 64" d="M122.939,721.166a33.435,33.435,0,0,1-5.092,5.688,25.06,25.06,0,0,1-6.319,4.1,14.635,14.635,0,0,1-6.969,1.634,17.415,17.415,0,0,1-7.595-1.634,25.035,25.035,0,0,1-6.321-4.1,33.362,33.362,0,0,1-5.092-5.688,45.387,45.387,0,0,1-3.942-6.629,61.629,61.629,0,0,1-4.866-14.725,77.491,77.491,0,0,1,0-30.4,61.64,61.64,0,0,1,4.866-14.726,45.328,45.328,0,0,1,3.943-6.628,33.309,33.309,0,0,1,5.092-5.689,25.035,25.035,0,0,1,6.318-4.1,20.188,20.188,0,0,1,7.279-1.653,20.2,20.2,0,0,1,7.286,1.652,25.064,25.064,0,0,1,6.32,4.1,33.392,33.392,0,0,1,5.092,5.689,45.276,45.276,0,0,1,3.942,6.628,61.669,61.669,0,0,1,4.866,14.726,77.486,77.486,0,0,1,0,30.4,61.662,61.662,0,0,1-4.866,14.727,45.462,45.462,0,0,1-3.942,6.628m13.091-20.431a74.336,74.336,0,0,0,1.819-15.687h.018l-.009-.438.006-.308-.01-.125h0a74.279,74.279,0,0,0-1.818-15.684,61.991,61.991,0,0,0-5.686-15.575,41.633,41.633,0,0,0-10.393-13.058,28.09,28.09,0,0,0-7.322-4.3,22.706,22.706,0,0,0-6.95-1.448l-.268-.014c-.42-.016-.8-.021-1.167-.014s-.747,0-1.163.014l-.173,0v0a22.673,22.673,0,0,0-7.05,1.455,28.132,28.132,0,0,0-7.321,4.3,41.646,41.646,0,0,0-10.393,13.058,62,62,0,0,0-5.686,15.574,74.359,74.359,0,0,0-1.818,15.685h-.017l.008.437-.007.31.013.124h0a75.415,75.415,0,0,0,1.818,15.686,61.977,61.977,0,0,0,5.686,15.573,41.627,41.627,0,0,0,10.393,13.058,28.139,28.139,0,0,0,7.322,4.3,22.889,22.889,0,0,0,7.854,1.472l1.18,0,.123,0v0a22.547,22.547,0,0,0,7.613-1.47,28.1,28.1,0,0,0,7.321-4.3,41.625,41.625,0,0,0,10.393-13.058,61.981,61.981,0,0,0,5.685-15.572" transform="translate(-56.986 -634.087)" fill="#4c4a48"/>
      <path id="Path_65" data-name="Path 65" d="M103.4,705.98c-3.286-.624-6.125-1.163-6.125-2.6,0-.6.45-1.1,1.336-1.469a16.412,16.412,0,0,1,5.813-.748c3.065,0,5.193.364,6.324,1.084a2.07,2.07,0,0,1,1.047,1.939v.024h1.887v-.024a7.156,7.156,0,0,0-1.406-4.559c-1.455-1.839-3.991-2.772-7.539-2.772-6.9,0-9.349,3.49-9.349,6.48,0,2.285,1.147,3.933,3.506,5.04a27.955,27.955,0,0,0,7.148,1.768c3.544.559,6.605,1.042,6.605,3.008,0,2.03-2.3,2.935-7.461,2.935-5.642,0-8.27-1.531-8.27-4.817v-.025H95.031v.025a10.151,10.151,0,0,0,1.546,5.674c1.569,2.289,4.254,3.451,7.982,3.451,3.56,0,6.252-.911,8-2.708a6.965,6.965,0,0,0,1.975-4.8c0-4.785-6.173-5.958-11.134-6.9" transform="translate(-57.524 -635.47)" fill="#4c4a48"/>
      <path id="Path_66" data-name="Path 66" d="M98.365,670.811c0,2.882.668,4.8,2.1,6.037,1.5,1.293,3.869,1.9,7.464,1.9.67,0,1.362,0,2.115-.047l.046,0V674.7h-.05c-4.538.142-6.864-.247-8.024-1.34a3.987,3.987,0,0,1-1.029-3.021V659.851h9.76v-3.636h-9.76v-7.648H98.637l-.084,7.648h-3.67v3.636h3.482Z" transform="translate(-57.521 -634.406)" fill="#4c4a48"/>
    </g>
    <path id="Path_67" data-name="Path 67" d="M121.26,671.034v.042h-.078v13.85H87.859V671.034H84.847v31.274h1.562l1.45-.034V689.263h33.323v13.045l3.039.047h.05V671.034Z" transform="translate(-1.015 -1.543)" fill="#4c4a48"/>
  </g>
</svg>
